<?xml version="1.0" encoding="UTF-8" standalone="no"?> <svg width="64" height="64" viewBox="0 0 64 64" fill="none" xmlns="http://www.w3.org/2000/svg">
<path d="M32 49C41.3888 49 49 41.3888 49 32C49 22.6112 41.3888 15 32 15C22.6112 15 15 22.6112 15 32C15 41.3888 22.6112 49 32 49Z" fill="#A8DBA8"/>
<path d="M39 43C36.114 43.0099 33.2639 42.36 30.6675 41.0999C28.0711 39.8398 25.7971 38.0029 24.0193 35.7295C22.2414 33.4561 21.0068 30.8064 20.4097 27.9828C19.8125 25.1592 19.8688 22.2365 20.574 19.438C18.8019 21.0487 17.3903 23.0158 16.4319 25.2104C15.4735 27.4049 14.9899 29.7773 15.0129 32.1719C15.0358 34.5665 15.5647 36.9292 16.565 39.105C17.5652 41.2808 19.0142 43.2206 20.8168 44.797C22.6195 46.3735 24.735 47.551 27.0247 48.2523C29.3144 48.9537 31.7265 49.163 34.1028 48.8666C36.4791 48.5702 38.7659 47.7747 40.8132 46.5324C42.8604 45.2901 44.6219 43.629 45.982 41.658C43.7605 42.543 41.3913 42.9984 39 43V43Z" fill="#79BD9A"/>
<path d="M35 3H29C28.7348 3 28.4804 3.10536 28.2929 3.29289C28.1054 3.48043 28 3.73478 28 4V8C28 8.26522 28.1054 8.51957 28.2929 8.70711C28.4804 8.89464 28.7348 9 29 9V13L33 9H35C35.2652 9 35.5196 8.89464 35.7071 8.70711C35.8946 8.51957 36 8.26522 36 8V4C36 3.73478 35.8946 3.48043 35.7071 3.29289C35.5196 3.10536 35.2652 3 35 3V3Z" fill="#A8DBA8"/>
<path d="M55 36.5L56 31.5H60L61 36.5H55Z" fill="#CFF09E"/>
<path d="M60 27.5H56V31.5H60V27.5Z" fill="#A8DBA8"/>
<path d="M27.5 61V53L37.5 57L27.5 61Z" fill="#CFF09E"/>
<path d="M29.194 53.677L27.5 53V61L31.788 59.285C30.4435 57.6774 29.5485 55.7425 29.194 53.677V53.677Z" fill="#A8DBA8"/>
<path d="M9 36H5C3.89543 36 3 36.8954 3 38V42C3 43.1046 3.89543 44 5 44H9C10.1046 44 11 43.1046 11 42V38C11 36.8954 10.1046 36 9 36Z" fill="#CFF09E"/>
<path d="M5.025 36H5C4.46957 36 3.96086 36.2107 3.58579 36.5858C3.21071 36.9609 3 37.4696 3 38V42C3 42.5304 3.21071 43.0391 3.58579 43.4142C3.96086 43.7893 4.46957 44 5 44H9C9.38763 43.9995 9.76677 43.8864 10.0913 43.6745C10.4158 43.4625 10.6718 43.1608 10.828 42.806C9.25758 42.4462 7.84495 41.5898 6.79965 40.3638C5.75434 39.1378 5.13202 37.6076 5.025 36V36Z" fill="#A8DBA8"/>
<path d="M29.523 3H29C28.7348 3 28.4804 3.10536 28.2929 3.29289C28.1054 3.48043 28 3.73478 28 4V8C28 8.26522 28.1054 8.51957 28.2929 8.70711C28.4804 8.89464 28.7348 9 29 9V13L33 9H35C35.2652 9 35.5196 8.89464 35.7071 8.70711C35.8946 8.51957 36 8.26522 36 8V7.808C34.6106 7.59434 33.2943 7.04469 32.1656 6.2068C31.0368 5.3689 30.1297 4.2681 29.523 3V3Z" fill="#79BD9A"/>
<path d="M14 32C14 35.5601 15.0557 39.0402 17.0335 42.0003C19.0114 44.9603 21.8226 47.2675 25.1117 48.6298C28.4008 49.9922 32.02 50.3487 35.5116 49.6541C39.0033 48.9596 42.2106 47.2453 44.7279 44.7279C47.2453 42.2106 48.9596 39.0033 49.6541 35.5116C50.3487 32.02 49.9922 28.4008 48.6298 25.1117C47.2675 21.8226 44.9603 19.0114 42.0003 17.0335C39.0402 15.0557 35.5601 14 32 14C27.2278 14.0056 22.6527 15.9038 19.2782 19.2782C15.9038 22.6527 14.0056 27.2278 14 32V32ZM31 22.027C29.1748 22.0756 27.3573 22.2827 25.568 22.646C26.848 19.173 28.798 16.725 31 16.146V22.027ZM31 24.027V31H24.026C24.0866 28.9339 24.3716 26.8805 24.876 24.876C26.8805 24.3716 28.9339 24.0866 31 24.026V24.027ZM22.027 31H16.146C16.725 28.8 19.173 26.848 22.646 25.568C22.2827 27.3573 22.0756 29.1748 22.027 31V31ZM22.027 33C22.0756 34.8252 22.2827 36.6427 22.646 38.432C19.173 37.152 16.725 35.202 16.146 33H22.027ZM24.027 33H31V39.974C28.9339 39.9134 26.8805 39.6284 24.876 39.124C24.3716 37.1195 24.0866 35.0661 24.026 33H24.027ZM31 41.973V47.854C28.8 47.275 26.848 44.827 25.568 41.354C27.3573 41.7173 29.1748 41.9244 31 41.973V41.973ZM33 47.854V41.973C34.8252 41.9244 36.6427 41.7173 38.432 41.354C37.152 44.827 35.2 47.275 33 47.854ZM33 39.974V33H39.974C39.9134 35.0661 39.6284 37.1195 39.124 39.124C37.1195 39.6284 35.0661 39.9134 33 39.974ZM41.973 33H47.854C47.275 35.2 44.827 37.152 41.354 38.432C41.7173 36.6427 41.9244 34.8252 41.973 33ZM41.973 31C41.9244 29.1748 41.7173 27.3573 41.354 25.568C44.827 26.848 47.275 28.798 47.854 31H41.973ZM39.973 31H33V24.026C35.0661 24.0866 37.1195 24.3716 39.124 24.876C39.6284 26.8805 39.9134 28.9339 39.974 31H39.973ZM33 22.027V16.146C35.2 16.725 37.152 19.173 38.432 22.646C36.6427 22.2827 34.8252 22.0756 33 22.027V22.027ZM26.364 17.045C24.9257 18.8826 23.8613 20.9842 23.231 23.231C20.9842 23.8613 18.8826 24.9257 17.045 26.364C17.8504 24.2397 19.0976 22.3105 20.704 20.704C22.3105 19.0976 24.2397 17.8504 26.364 17.045V17.045ZM17.045 37.636C18.8826 39.0743 20.9842 40.1387 23.231 40.769C23.8613 43.0158 24.9257 45.1174 26.364 46.955C24.2397 46.1496 22.3105 44.9024 20.704 43.296C19.0976 41.6895 17.8504 39.7603 17.045 37.636V37.636ZM37.636 46.955C39.0743 45.1174 40.1387 43.0158 40.769 40.769C43.0158 40.1387 45.1174 39.0743 46.955 37.636C46.1496 39.7603 44.9024 41.6895 43.296 43.296C41.6895 44.9024 39.7603 46.1496 37.636 46.955V46.955ZM46.955 26.364C45.1174 24.9257 43.0158 23.8613 40.769 23.231C40.1387 20.9842 39.0743 18.8826 37.636 17.045C39.7603 17.8504 41.6895 19.0976 43.296 20.704C44.9024 22.3105 46.1496 24.2397 46.955 26.364V26.364Z" fill="#3B8686"/>
<path d="M28 9.731V13C28 13.1978 28.0585 13.3911 28.1684 13.5556C28.2782 13.72 28.4343 13.8483 28.617 13.924C28.7383 13.9746 28.8685 14.0004 29 14C29.2652 13.9999 29.5195 13.8945 29.707 13.707L33.414 10H35C35.5304 10 36.0391 9.78929 36.4142 9.41421C36.7893 9.03914 37 8.53043 37 8V4C37 3.46957 36.7893 2.96086 36.4142 2.58579C36.0391 2.21071 35.5304 2 35 2H29C28.4696 2 27.9609 2.21071 27.5858 2.58579C27.2107 2.96086 27 3.46957 27 4V8C27.0002 8.3509 27.0927 8.69557 27.2682 8.9994C27.4437 9.30324 27.6961 9.55555 28 9.731V9.731ZM29 4H35V8H33C32.7348 8.00006 32.4805 8.10545 32.293 8.293L30 10.586V9C30 8.73478 29.8946 8.48043 29.7071 8.29289C29.5196 8.10536 29.2652 8 29 8V4Z" fill="#3B8686"/>
<path d="M61 31.4V27.5C61 27.2348 60.8947 26.9804 60.7071 26.7929C60.5196 26.6054 60.2652 26.5 60 26.5H56C55.7348 26.5 55.4804 26.6054 55.2929 26.7929C55.1054 26.9804 55 27.2348 55 27.5V28.78L52.684 29.552C52.5593 29.5935 52.4439 29.6592 52.3445 29.7452C52.2451 29.8313 52.1637 29.9361 52.1048 30.0537C52.0459 30.1713 52.0108 30.2993 52.0014 30.4304C51.992 30.5615 52.0085 30.6932 52.05 30.818C52.0915 30.9428 52.1572 31.0581 52.2433 31.1575C52.3293 31.2569 52.4342 31.3383 52.5517 31.3972C52.6693 31.4561 52.7973 31.4912 52.9284 31.5006C53.0596 31.51 53.1913 31.4935 53.316 31.452L55 30.887V31.4L54.02 36.3C53.9904 36.4453 53.9934 36.5954 54.0289 36.7394C54.0644 36.8834 54.1315 37.0177 54.2253 37.1325C54.3191 37.2474 54.4373 37.34 54.5713 37.4035C54.7053 37.4671 54.8517 37.5 55 37.5H61C61.1483 37.5 61.2948 37.4671 61.4288 37.4035C61.5628 37.34 61.6809 37.2474 61.7748 37.1325C61.8686 37.0177 61.9356 36.8834 61.9711 36.7394C62.0067 36.5954 62.0097 36.4453 61.98 36.3L61 31.4ZM57 28.5H59V30.5H57V28.5ZM56.22 35.5L56.82 32.5H59.182L59.782 35.5H56.22Z" fill="#3B8686"/>
<path d="M37.871 56.071L27.871 52.071C27.7192 52.0104 27.5549 51.9879 27.3925 52.0054C27.23 52.023 27.0743 52.0801 26.939 52.1718C26.8038 52.2635 26.693 52.3869 26.6165 52.5313C26.5399 52.6756 26.4999 52.8366 26.5 53V61C26.5 61.2652 26.6054 61.5196 26.7929 61.7071C26.9804 61.8946 27.2348 62 27.5 62C27.6271 62.0003 27.753 61.9762 27.871 61.929L37.871 57.929C38.0569 57.855 38.2163 57.7268 38.3286 57.5612C38.4409 57.3956 38.5009 57.2001 38.5009 57C38.5009 56.7999 38.4409 56.6044 38.3286 56.4388C38.2163 56.2732 38.0569 56.1451 37.871 56.071V56.071ZM28.5 59.523V54.477L34.808 57L28.5 59.523Z" fill="#3B8686"/>
<path d="M3 26H4V29C4 29.2652 4.10536 29.5196 4.29289 29.7071C4.48043 29.8946 4.73478 30 5 30C5.26522 30 5.51957 29.8946 5.70711 29.7071C5.89464 29.5196 6 29.2652 6 29V26H7C7.26522 26 7.51957 25.8946 7.70711 25.7071C7.89464 25.5196 8 25.2652 8 25C8 24.7348 7.89464 24.4804 7.70711 24.2929C7.51957 24.1054 7.26522 24 7 24H6V23C6 22.7348 6.10536 22.4804 6.29289 22.2929C6.48043 22.1054 6.73478 22 7 22C7.26522 22 7.51957 21.8946 7.70711 21.7071C7.89464 21.5196 8 21.2652 8 21C8 20.7348 7.89464 20.4804 7.70711 20.2929C7.51957 20.1054 7.26522 20 7 20C6.20435 20 5.44129 20.3161 4.87868 20.8787C4.31607 21.4413 4 22.2044 4 23V24H3C2.73478 24 2.48043 24.1054 2.29289 24.2929C2.10536 24.4804 2 24.7348 2 25C2 25.2652 2.10536 25.5196 2.29289 25.7071C2.48043 25.8946 2.73478 26 3 26V26Z" fill="#3B8686"/>
<path d="M12 42V38C12 37.2044 11.6839 36.4413 11.1213 35.8787C10.5587 35.3161 9.79565 35 9 35H5C4.20435 35 3.44129 35.3161 2.87868 35.8787C2.31607 36.4413 2 37.2044 2 38V42C2 42.7956 2.31607 43.5587 2.87868 44.1213C3.44129 44.6839 4.20435 45 5 45H9C9.79565 45 10.5587 44.6839 11.1213 44.1213C11.6839 43.5587 12 42.7956 12 42ZM10 42C10 42.2652 9.89464 42.5196 9.70711 42.7071C9.51957 42.8946 9.26522 43 9 43H5C4.73478 43 4.48043 42.8946 4.29289 42.7071C4.10536 42.5196 4 42.2652 4 42V38C4 37.7348 4.10536 37.4804 4.29289 37.2929C4.48043 37.1054 4.73478 37 5 37H9C9.26522 37 9.51957 37.1054 9.70711 37.2929C9.89464 37.4804 10 37.7348 10 38V42Z" fill="#3B8686"/>
<path d="M7 41C7.55228 41 8 40.5523 8 40C8 39.4477 7.55228 39 7 39C6.44772 39 6 39.4477 6 40C6 40.5523 6.44772 41 7 41Z" fill="#3B8686"/>
<path d="M47 14C47.7956 14 48.5587 14.3161 49.1213 14.8787C49.6839 15.4413 50 16.2044 50 17C50 17.2652 50.1054 17.5196 50.2929 17.7071C50.4804 17.8946 50.7348 18 51 18C51.2652 18 51.5196 17.8946 51.7071 17.7071C51.8946 17.5196 52 17.2652 52 17C51.9984 15.6744 51.4711 14.4036 50.5338 13.4662C49.5964 12.5289 48.3256 12.0016 47 12C46.7348 12 46.4804 12.1054 46.2929 12.2929C46.1054 12.4804 46 12.7348 46 13C46 13.2652 46.1054 13.5196 46.2929 13.7071C46.4804 13.8946 46.7348 14 47 14Z" fill="#3B8686"/>
<path d="M47 10C48.8558 10.0024 50.6349 10.7406 51.9471 12.0529C53.2594 13.3651 53.9976 15.1442 54 17C54 17.2652 54.1054 17.5196 54.2929 17.7071C54.4804 17.8946 54.7348 18 55 18C55.2652 18 55.5196 17.8946 55.7071 17.7071C55.8946 17.5196 56 17.2652 56 17C55.9974 14.6139 55.0483 12.3262 53.361 10.639C51.6738 8.95171 49.3861 8.00265 47 8C46.7348 8 46.4804 8.10536 46.2929 8.29289C46.1054 8.48043 46 8.73478 46 9C46 9.26522 46.1054 9.51957 46.2929 9.70711C46.4804 9.89464 46.7348 10 47 10Z" fill="#3B8686"/>
<path d="M47 6C49.9163 6.00344 52.7122 7.16347 54.7744 9.22563C56.8365 11.2878 57.9966 14.0837 58 17C58 17.2652 58.1054 17.5196 58.2929 17.7071C58.4804 17.8946 58.7348 18 59 18C59.2652 18 59.5196 17.8946 59.7071 17.7071C59.8946 17.5196 60 17.2652 60 17C59.9966 13.5532 58.6258 10.2486 56.1886 7.81141C53.7514 5.37419 50.4468 4.00344 47 4C46.7348 4 46.4804 4.10536 46.2929 4.29289C46.1054 4.48043 46 4.73478 46 5C46 5.26522 46.1054 5.51957 46.2929 5.70711C46.4804 5.89464 46.7348 6 47 6Z" fill="#3B8686"/>
<path d="M23.667 55.548C19.178 53.9643 15.2345 51.132 12.3 47.384C12.2191 47.2805 12.1186 47.194 12.0043 47.1293C11.8899 47.0647 11.764 47.0232 11.6336 47.0072C11.3703 46.975 11.105 47.0486 10.896 47.212C10.687 47.3754 10.5515 47.6151 10.5192 47.8784C10.4869 48.1417 10.5606 48.407 10.724 48.616C13.8932 52.6637 18.152 55.7226 23 57.433C23.2491 57.518 23.5216 57.5014 23.7585 57.3867C23.9954 57.2721 24.1776 57.0687 24.2655 56.8206C24.3534 56.5725 24.34 56.2998 24.2281 56.0616C24.1163 55.8233 23.915 55.6388 23.668 55.548H23.667Z" fill="#3B8686"/>
<path d="M9.56098 18.842C9.78394 18.9852 10.0546 19.034 10.3135 18.9777C10.5725 18.9215 10.7985 18.7648 10.942 18.542C14.0698 13.6574 18.7928 10.0069 24.308 8.21099C24.5474 8.11953 24.7426 7.9396 24.8532 7.70837C24.9638 7.47713 24.9814 7.21225 24.9024 6.96842C24.8233 6.72459 24.6537 6.52042 24.4284 6.39808C24.2032 6.27574 23.9395 6.24456 23.692 6.31099C17.7374 8.24826 12.6374 12.1878 9.25898 17.46C9.18803 17.5706 9.13955 17.694 9.11633 17.8233C9.09311 17.9526 9.09559 18.0852 9.12364 18.2136C9.15169 18.3419 9.20474 18.4635 9.27978 18.5713C9.35482 18.6791 9.45037 18.7711 9.56098 18.842V18.842Z" fill="#3B8686"/>
<path d="M56.744 40.062C56.4952 39.9703 56.2202 39.9811 55.9794 40.0922C55.7386 40.2032 55.5518 40.4053 55.46 40.654C54.2637 43.8787 52.4175 46.8231 50.0358 49.3046C47.6541 51.786 44.7879 53.7515 41.615 55.079C41.4028 55.1687 41.2282 55.3289 41.1205 55.5325C41.0128 55.7361 40.9788 55.9707 41.024 56.1965C41.0693 56.4223 41.1911 56.6256 41.3689 56.772C41.5467 56.9184 41.7697 56.9989 42 57C42.1322 57.0004 42.2631 56.9742 42.385 56.923C45.8114 55.4894 48.9067 53.367 51.4788 50.6874C54.0509 48.0078 56.0448 44.8282 57.337 41.346C57.3824 41.2227 57.403 41.0918 57.3978 40.9605C57.3925 40.8293 57.3615 40.7004 57.3064 40.5812C57.2514 40.4619 57.1734 40.3547 57.0768 40.2656C56.9803 40.1766 56.8672 40.1074 56.744 40.062V40.062Z" fill="#3B8686"/>
</svg>
